<?xml version="1.0" encoding="UTF-8"?>
<svg width="68px" height="68px" viewBox="0 0 68 68" version="1.1" xmlns="http://www.w3.org/2000/svg" xmlns:xlink="http://www.w3.org/1999/xlink">
    <!-- Generator: Sketch 52.3 (67297) - http://www.bohemiancoding.com/sketch -->
    <title>安静</title>
    <desc>Created with Sketch.</desc>
    <defs>
        <radialGradient cx="40.0735289%" cy="37.1495864%" fx="40.0735289%" fy="37.1495864%" r="69.2038143%" id="radialGradient-1">
            <stop stop-color="#B2D0FE" offset="0%"></stop>
            <stop stop-color="#3A8CF5" offset="100%"></stop>
        </radialGradient>
    </defs>
    <g id="移动端" stroke="none" stroke-width="1" fill="none" fill-rule="evenodd">
        <g id="注意事项" transform="translate(-519.000000, -371.000000)" fill="url(#radialGradient-1)" fill-rule="nonzero">
            <path d="M586.560421,388.640594 C586.291095,385.64352 585.915969,382.658419 585.504239,380.235229 C584.814867,376.178256 584.331552,375.448527 584.125114,375.136742 C582.718559,373.013363 578.502528,371.398626 575.238981,371.064402 C573.555837,370.892058 572.156451,371.067325 571.109922,371.56965 C569.053754,371.956105 568.166737,373.580553 567.667939,374.850413 C565.113166,381.354429 562.067049,390.971484 560.539498,397.266197 C555.57484,396.168587 550.427923,396.161893 545.456288,397.248756 C543.925297,390.949516 540.88004,381.338402 538.331478,374.851073 C537.833254,373.581307 536.947861,371.959122 534.892363,371.57097 C533.845834,371.067702 532.445492,370.891964 530.760245,371.064591 C527.496221,371.399097 523.28038,373.013929 521.874877,375.137402 C521.667865,375.44947 521.18455,376.181839 520.495657,380.234946 C520.083831,382.657665 519.708801,385.642577 519.43957,388.639745 C518.507442,399.011607 519.266391,403.029076 519.801698,404.500696 C520.224897,405.664114 520.8812,406.390072 521.752352,406.658299 C522.062583,406.7539 522.365647,406.797551 522.661447,406.797457 C525.194717,406.79708 527.157986,403.596549 527.851754,402.465563 C528.790859,400.934452 529.770773,398.970407 530.735109,396.715601 C531.781543,398.285178 532.816221,399.779708 533.76775,401.153654 C533.956795,401.42669 534.142112,401.694351 534.323797,401.957204 C528.526311,405.985421 525.235144,411.658263 525.235144,417.721518 C525.235144,420.653162 525.993233,423.49128 527.488097,426.157053 C528.911377,428.695077 530.939159,430.96657 533.515054,432.908649 C538.725241,436.836646 545.630136,439 552.957656,439 C560.285464,439 567.190932,436.836834 572.402266,432.908743 C574.97883,430.966665 577.007186,428.695077 578.430752,426.157242 C579.926285,423.49128 580.684565,420.653162 580.684565,417.721424 C580.684565,411.674196 577.412704,406.018514 571.647809,401.996236 C571.836184,401.723955 572.028191,401.446488 572.224499,401.163271 C573.178227,399.786214 574.215581,398.288007 575.264691,396.714564 C576.229696,398.971067 577.210566,400.936527 578.150053,402.468298 C578.843534,403.598812 580.805848,406.797834 583.33864,406.797551 C583.634153,406.797551 583.937599,406.753994 584.247639,406.658394 C585.1186,406.390166 585.774807,405.664586 586.198006,404.501922 C586.733504,403.030868 587.492644,399.013964 586.560421,388.640971 L586.560421,388.640594 Z M524.858202,401.221159 C523.854777,402.778479 523.179359,403.332847 522.857181,403.526687 C522.671386,403.064054 522.358383,401.91129 522.251628,399.263995 C522.155576,396.880686 522.246849,393.798759 522.515793,390.351308 C523.055592,383.431045 524.090652,377.753207 524.571004,376.854151 C525.160979,375.994315 528.137136,374.515624 531.091789,374.21289 C531.793203,374.141049 532.332811,374.155097 532.736704,374.209402 C532.896694,374.360722 533.089848,374.481683 533.309858,374.55871 C533.387368,374.585769 533.4493,374.611884 533.498424,374.635454 C533.508555,374.722664 533.515054,374.832123 533.517252,374.964021 C533.488676,376.460908 532.965794,380.007448 531.205713,385.885254 C529.284591,392.300835 526.911598,398.033921 524.858011,401.221159 L524.858202,401.221159 Z M583.748554,399.263901 C583.641894,401.911101 583.329083,403.06396 583.143097,403.526687 C582.821014,403.332847 582.145979,402.778857 581.143127,401.222573 C579.089444,398.035995 576.716356,392.302909 574.794756,385.886385 C573.025882,379.979635 572.505963,376.426307 572.481783,374.941865 C572.484268,374.819867 572.490767,374.717855 572.500229,374.635549 C572.549544,374.611979 572.611572,374.585769 572.689273,374.558522 C572.909092,374.481589 573.101863,374.360816 573.261758,374.209779 C573.665651,374.155285 574.205641,374.141049 574.907724,374.21289 C577.861421,374.515436 580.837578,375.99375 581.429178,376.853963 C581.90953,377.753679 582.944208,383.431423 583.484198,390.35112 C583.753046,393.798571 583.84451,396.880497 583.748554,399.263901 Z M544.274904,417.637703 L544.274904,417.637515 C544.954527,418.196314 545.046564,419.19625 544.480196,419.866676 C543.248541,421.324249 541.78426,422.128365 540.127781,422.257246 C539.976488,422.268937 539.823571,422.274876 539.67266,422.274876 C537.164431,422.274876 535.269114,420.704262 535.061241,420.525318 C534.394808,419.950303 534.32676,418.948387 534.909184,418.291442 C535.489984,417.636195 536.504114,417.56803 537.169878,418.138991 C537.176091,418.144177 538.478757,419.214634 539.883018,419.100744 C540.642444,419.03965 541.359723,418.615389 542.01507,417.83984 C542.581821,417.169602 543.595568,417.07881 544.274904,417.637703 Z M564.390344,418.133994 L564.390344,418.134183 C564.438226,418.173403 565.724644,419.212089 567.111128,419.100838 C567.870364,419.039556 568.587738,418.615295 569.24299,417.839934 C569.809549,417.169696 570.82301,417.078904 571.502728,417.637703 C572.182351,418.196502 572.274293,419.196533 571.707829,419.866959 C570.476174,421.324437 569.011893,422.128553 567.35551,422.257434 C567.204886,422.269125 567.051586,422.275065 566.899911,422.275065 C564.389388,422.275065 562.495218,420.704262 562.287441,420.525318 C561.621294,419.95068 561.55315,418.94867 562.135575,418.291725 C562.714368,417.638363 563.724388,417.568124 564.390344,418.133994 Z" id="安静"></path>
        </g>
    </g>
</svg>