<?xml version="1.0" encoding="utf-8"?>
<!-- Generator: Adobe Illustrator 21.0.0, SVG Export Plug-In . SVG Version: 6.00 Build 0)  -->
<svg version="1.1" id="图层_1" xmlns="http://www.w3.org/2000/svg" xmlns:xlink="http://www.w3.org/1999/xlink" x="0px" y="0px"
	 viewBox="0 0 13 13" style="enable-background:new 0 0 13 13;" xml:space="preserve">
<style type="text/css">
	.st0{fill:#006AFF;}
</style>
<title>Path 2</title>
<desc>Created with Sketch.</desc>
<path id="Path-2" class="st0" d="M1.9,4.9l2.5,2.7c0.2,0.2,0.2,0.6,0,0.9C4.3,8.6,4.2,8.6,4,8.6c-0.2,0-0.3-0.1-0.4-0.2L0.2,4.7
	c-0.2-0.2-0.2-0.6,0-0.9l3.5-3.7C3.7,0.1,3.9,0,4,0s0.3,0.1,0.4,0.2c0.2,0.2,0.2,0.6,0,0.9L1.9,3.7h6.8c2.4,0,4.3,2.1,4.3,4.6
	S11.1,13,8.7,13H1.2c-0.3,0-0.6-0.3-0.6-0.6c0-0.3,0.3-0.6,0.6-0.6h7.5c1.8,0,3.2-1.5,3.2-3.4c0-1.9-1.4-3.4-3.2-3.4H1.9z"/>
</svg>
