<?xml version="1.0" encoding="UTF-8"?>
<svg width="24px" height="24px" viewBox="0 0 24 24" version="1.1" xmlns="http://www.w3.org/2000/svg" xmlns:xlink="http://www.w3.org/1999/xlink">
    <!-- Generator: Sketch 46.2 (44496) - http://www.bohemiancoding.com/sketch -->
    <title>Shape</title>
    <desc>Created with Sketch.</desc>
    <defs></defs>
    <g id="机器人对外" stroke="none" stroke-width="1" fill="none" fill-rule="evenodd">
        <g id="导航折叠-只看导航就好" transform="translate(-25.000000, -25.000000)" fill-rule="nonzero" fill="#FFFFFF">
            <g id="Left">
                <path d="M45.197741,43.0858403 L40.0305175,43.0858403 C39.6175957,43.0858403 39.2797506,42.7478078 39.2797506,42.334657 L39.2797506,41.4961017 L43.7306956,41.4961017 C44.1436174,41.4961017 44.4814625,41.1580693 44.4814625,40.7449185 L44.4814625,28.8497673 C44.4814625,28.4366165 44.1436174,28.098584 43.7306956,28.098584 L40.0305409,28.098584 L40.0305409,26.5023665 C40.0305409,25.6739522 39.3569623,25 38.5290072,25 L35.5020089,25 C34.6740538,25 34.0004751,25.6739522 34.0004751,26.5023665 L34.0004751,28.098584 L30.168467,28.098584 C29.7555452,28.098584 29.4177001,28.4366165 29.4177001,28.8497673 L29.4177001,40.7449185 C29.4177001,41.1580693 29.7555452,41.4961017 30.168467,41.4961017 L34.751242,41.4961017 L34.751242,42.334657 C34.751242,42.7478078 34.4133969,43.0858403 34.0004751,43.0858403 L28.7159442,43.0858403 C28.3030224,43.0858403 27.9651773,43.4238727 27.9651773,43.8370236 L27.9651773,48.2488167 C27.9651773,48.6619675 28.3030224,49 28.7159442,49 L45.197741,49 C45.6106628,49 45.9485079,48.6619675 45.9485079,48.2488167 L45.9485079,43.8370236 C45.9485079,43.4238727 45.6106628,43.0858403 45.197741,43.0858403 L45.197741,43.0858403 Z M41.5235817,34.7345134 C41.5235817,35.5642423 40.8513169,36.23688 40.0220479,36.23688 C39.1927789,36.23688 38.5205141,35.5642423 38.5205141,34.7345134 C38.5205141,33.9047846 39.1927789,33.232147 40.0220479,33.232147 C40.8513169,33.232147 41.5235817,33.9047611 41.5235817,34.7345134 L41.5235817,34.7345134 Z M35.5020089,26.5037046 C35.5024077,26.5032351 35.502877,26.5027421 35.5033462,26.5023665 L38.5276464,26.5023665 C38.5281391,26.5027656 38.5286083,26.5032586 38.5290072,26.5037281 L38.5290072,28.098584 L35.5020089,28.098584 L35.5020089,26.5037046 L35.5020089,26.5037046 Z M32.5707099,34.7345134 C32.5707099,33.9047846 33.2429747,33.232147 34.0722437,33.232147 C34.9015127,33.232147 35.5737775,33.9047846 35.5737775,34.7345134 C35.5737775,35.5642423 34.9015127,36.23688 34.0722437,36.23688 C33.2429747,36.23688 32.5707099,35.5642423 32.5707099,34.7345134 L32.5707099,34.7345134 Z M46.7595239,31.6360233 L46.7595239,37.8329801 C46.7595239,38.2478445 46.4233914,38.5841634 46.008757,38.5841634 C45.5941225,38.5841634 45.2579901,38.2478445 45.2579901,37.8329801 L45.2579901,31.6360233 C45.2579901,31.2211589 45.5941225,30.8848401 46.008757,30.8848401 C46.4233914,30.8848401 46.7595239,31.2211589 46.7595239,31.6360233 L46.7595239,31.6360233 Z M49,33.1866769 L49,36.1944616 C49,36.609326 48.6638675,36.9456449 48.2492331,36.9456449 C47.8345986,36.9456449 47.4984662,36.609326 47.4984662,36.1944616 L47.4984662,33.1866769 C47.4984662,32.7718124 47.8345986,32.4354936 48.2492331,32.4354936 C48.6638675,32.4354936 49,32.7718124 49,33.1866769 L49,33.1866769 Z M27.991243,38.5841634 C27.5766085,38.5841634 27.2404761,38.2478445 27.2404761,37.8329801 L27.2404761,31.6360233 C27.2404761,31.2211589 27.5766085,30.8848401 27.991243,30.8848401 C28.4058775,30.8848401 28.7420099,31.2211589 28.7420099,31.6360233 L28.7420099,37.8329801 C28.7420099,38.2478445 28.4058775,38.5841634 27.991243,38.5841634 L27.991243,38.5841634 Z M26.5015338,33.1866769 L26.5015338,36.1944616 C26.5015338,36.609326 26.1654014,36.9456449 25.7507669,36.9456449 C25.3361324,36.9456449 25,36.609326 25,36.1944616 L25,33.1866769 C25,32.7718124 25.3361324,32.4354936 25.7507669,32.4354936 C26.1654014,32.4354936 26.5015338,32.7718124 26.5015338,33.1866769 L26.5015338,33.1866769 Z" id="Shape"></path>
            </g>
        </g>
    </g>
</svg>